<svg width="26" height="25" viewBox="0 0 26 25" fill="none" xmlns="http://www.w3.org/2000/svg">
<circle cx="13.0459" cy="12.5" r="12" stroke="white"/>
<path d="M16.7388 5.68213H10.4888C8.76288 5.68213 7.36377 7.08124 7.36377 8.80713V15.0571C7.36377 16.783 8.76288 18.1821 10.4888 18.1821H16.7388C18.4647 18.1821 19.8638 16.783 19.8638 15.0571V8.80713C19.8638 7.08124 18.4647 5.68213 16.7388 5.68213Z" stroke="white" stroke-linecap="round" stroke-linejoin="round"/>
<path d="M16.1146 11.5376C16.1917 12.0577 16.1028 12.589 15.8607 13.0557C15.6185 13.5225 15.2353 13.901 14.7656 14.1374C14.2959 14.3738 13.7636 14.4561 13.2444 14.3725C12.7253 14.289 12.2457 14.0439 11.8738 13.6721C11.502 13.3002 11.2569 12.8206 11.1734 12.3015C11.0898 11.7823 11.1721 11.25 11.4085 10.7803C11.6449 10.3106 12.0234 9.92743 12.4902 9.68524C12.9569 9.44305 13.4882 9.35421 14.0083 9.43134C14.5389 9.51002 15.0301 9.75726 15.4094 10.1365C15.7886 10.5158 16.0359 11.007 16.1146 11.5376Z" stroke="white" stroke-linecap="round" stroke-linejoin="round"/>
<path d="M17.0513 8.49463H17.0588" stroke="white" stroke-linecap="round" stroke-linejoin="round"/>
</svg>
